<svg width="300" height="462" viewBox="0 0 300 462" fill="none" xmlns="http://www.w3.org/2000/svg">
<path d="M214.248 92.7825C231.276 112.489 229.132 145.798 211.437 183.991C193.77 222.121 160.709 264.855 116.422 303.123C72.1361 341.39 25.0593 367.904 -15.2307 379.854C-55.5861 391.823 -88.8539 389.113 -105.882 369.407C-122.91 349.701 -120.766 316.392 -103.071 278.199C-85.404 240.068 -52.3428 197.334 -8.05656 159.067C36.2297 120.799 83.3065 94.2852 123.596 82.3356C163.952 70.3666 197.22 73.0761 214.248 92.7825Z" stroke="#55C1E1" stroke-opacity="0.19" stroke-width="1.34657"/>
<path d="M257.305 171.998C264.581 197.006 248.761 226.397 216.769 253.752C184.828 281.063 136.975 306.148 80.7757 322.498C24.5765 338.849 -29.2653 343.351 -70.8719 337.438C-112.546 331.515 -141.664 315.199 -148.94 290.191C-156.215 265.184 -140.396 235.793 -108.403 208.438C-76.4627 181.127 -28.6093 156.042 27.5898 139.691C83.789 123.341 137.631 118.839 179.237 124.752C220.912 130.674 250.03 146.991 257.305 171.998Z" stroke="#55C1E1" stroke-opacity="0.19" stroke-width="1.34657"/>
</svg>
