<svg width="1062" height="996" viewBox="0 0 1062 996" fill="none" xmlns="http://www.w3.org/2000/svg">
<path d="M858.203 158.814C899.913 199.15 901.788 273.489 870.129 361.761C838.521 449.89 773.67 551.299 683.021 645.033C592.373 738.767 493.192 806.975 406.169 841.515C319.006 876.111 244.646 876.724 202.937 836.387C161.227 796.051 159.351 721.712 191.011 633.44C222.619 545.311 287.47 443.902 378.119 350.168C468.767 256.434 567.948 188.226 654.97 153.686C742.134 119.09 816.494 118.477 858.203 158.814Z" stroke="#55C1E1" stroke-opacity="0.21" stroke-width="3"/>
<path d="M969.521 326.016C990.645 380.058 961.395 448.425 895.853 515.497C830.417 582.46 729.228 647.652 607.781 695.126C486.333 742.599 367.757 763.312 274.256 758.477C180.603 753.634 112.742 723.227 91.6173 669.185C70.4927 615.144 99.7431 546.776 165.285 479.705C230.721 412.742 331.91 347.549 453.357 300.076C574.805 252.602 693.381 231.89 786.882 236.725C880.535 241.568 948.396 271.975 969.521 326.016Z" stroke="#55C1E1" stroke-opacity="0.21" stroke-width="3"/>
</svg>
