<svg width="85" height="35" viewBox="0 0 85 35" fill="none" xmlns="http://www.w3.org/2000/svg">
<path d="M0.824624 0.746094L0.821289 34.8956L84.1875 34.9156L84.1942 0.762768L0.824624 0.746094Z" fill="#D2091E"/>
<path d="M67.4766 22.0031L68.8739 17.6477L70.458 22.0064L67.4766 22.0031ZM71.8553 7.59626L65.7724 7.59293C63.6548 15.37 62.4909 19.8954 60.2165 28.0693L66.0159 28.076C66.2126 27.4557 66.4127 26.6686 66.6362 25.8749H70.9649C71.2183 26.812 71.305 27.2322 71.5852 28.076H77.3579C75.5237 21.106 74.3365 16.4438 71.8553 7.59626ZM18.5901 21.6329C18.5167 22.1865 18.1265 22.5967 17.5429 22.7234C17.2828 22.7668 17.0193 22.7901 16.7558 22.7901H13.9612L13.9645 20.0355H16.7458H16.9393C17.1594 20.0355 17.4095 20.0322 17.7096 20.1489C18.2666 20.359 18.6267 20.9026 18.6001 21.4962V21.4995C18.5967 21.5462 18.5934 21.5896 18.5901 21.6329ZM16.2656 12.6553L16.4891 12.662L17.1927 12.7354C17.8497 12.8954 18.3099 13.3957 18.3166 13.9526V13.9559C18.3199 14.663 17.8164 15.2599 17.1527 15.3433L16.349 15.3966H13.9712L13.9679 12.6553H16.2656ZM22.762 17.8345C23.9092 16.3071 24.4528 14.2994 24.0526 12.2785C23.6958 10.4576 22.3618 8.53004 20.3676 8.01313C19.3804 7.75634 18.4033 7.62961 16.8326 7.59293L7.6582 7.58626L7.67488 28.0693L16.3857 28.0726C17.9831 28.0226 19.5739 28.1794 20.8311 27.6158C23.0488 26.6153 24.6696 25.0012 24.7096 22.4366C24.733 20.6358 24.1127 18.975 22.762 17.8345ZM54.5471 22.6667C54.5538 17.5843 54.5538 7.58959 54.5538 7.58959C52.5995 7.58959 52.4861 7.59293 48.6143 7.58626C48.611 20.2256 48.611 21.3194 48.6076 28.0693C53.1331 28.066 58.5757 28.0726 58.5757 28.0726C58.5723 25.6015 58.5757 24.7177 58.579 22.6701L54.5471 22.6667ZM26.7006 7.57959C26.7006 7.57959 26.6939 22.2699 26.6939 28.0593C29.3785 28.0593 30.6491 28.0593 32.7034 28.0626C32.7034 21.4228 32.7101 7.58292 32.7101 7.58292C30.8225 7.58292 29.4585 7.57959 26.7006 7.57959ZM42.0745 7.59626C40.1203 7.59626 40.0069 7.5996 36.135 7.59626C36.1284 20.2356 36.1317 21.3328 36.125 28.076C40.6505 28.0793 46.0931 28.0793 46.0931 28.0793C46.0964 25.6081 46.0964 24.7277 46.0998 22.6768H42.0679L42.0745 7.59626Z" fill="#FFD500"/>
</svg>
