<svg width="804" height="996" viewBox="0 0 804 996" fill="none" xmlns="http://www.w3.org/2000/svg">
<path d="M600.203 158.814C641.913 199.151 643.788 273.489 612.129 361.761C580.521 449.891 515.67 551.299 425.021 645.033C334.373 738.767 235.192 806.976 148.169 841.515C61.0058 876.111 -13.3536 876.724 -55.0633 836.387C-96.773 796.051 -98.6485 721.712 -66.989 633.44C-35.3809 545.311 29.4702 443.902 120.119 350.168C210.767 256.434 309.948 188.226 396.97 153.686C484.134 119.091 558.494 118.478 600.203 158.814Z" stroke="#55C1E1" stroke-opacity="0.21" stroke-width="3"/>
<path d="M711.521 326.016C732.645 380.058 703.395 448.425 637.853 515.497C572.417 582.46 471.228 647.653 349.781 695.126C228.333 742.599 109.757 763.312 16.256 758.477C-77.397 753.634 -145.258 723.227 -166.383 669.186C-187.507 615.144 -158.257 546.777 -92.7148 479.705C-27.2792 412.742 73.9098 347.549 195.357 300.076C316.805 252.603 435.381 231.89 528.882 236.725C622.535 241.568 690.396 271.975 711.521 326.016Z" stroke="#55C1E1" stroke-opacity="0.21" stroke-width="3"/>
</svg>
