<svg width="375" height="332" viewBox="0 0 375 332" fill="none" xmlns="http://www.w3.org/2000/svg">
<path d="M354.605 206.099C349.62 227.802 325.571 243.141 290.336 250.229C255.152 257.308 209.031 256.105 160.323 244.917C111.615 233.73 69.5909 214.688 41.0221 192.967C12.4109 171.213 -2.53483 146.918 2.44994 125.215C7.4347 103.512 31.4838 88.173 66.7195 81.0842C101.903 74.006 148.024 75.2089 196.732 86.3964C245.441 97.5838 287.464 116.626 316.033 138.347C344.644 160.1 359.59 184.396 354.605 206.099Z" stroke="#55C1E1" stroke-opacity="0.32" stroke-width="1.04935"/>
<path d="M331.538 261.714C319.698 280.574 291.944 287.158 256.335 282.274C220.78 277.398 177.615 261.106 135.288 234.533C92.9615 207.961 59.5291 176.167 39.6847 146.264C19.8108 116.317 13.6788 88.4594 25.5185 69.5998C37.3583 50.7403 65.1125 44.1558 100.721 49.0396C136.276 53.9161 179.441 70.2082 221.768 96.7804C264.095 123.353 297.527 155.147 317.371 185.05C337.245 214.997 343.377 242.854 331.538 261.714Z" stroke="#55C1E1" stroke-opacity="0.32" stroke-width="1.04935"/>
</svg>
